<svg width="57" height="54" viewBox="0 0 57 54" fill="none" xmlns="http://www.w3.org/2000/svg">
<g clip-path="url(#clip0_626_21)">
<path d="M38.7138 53.14H24.0738C18.8338 53.14 14.9538 51.78 12.4338 49.06C9.95383 46.34 8.71383 42.82 8.71383 38.5V21.64C8.71383 19.44 9.03383 17.54 9.67383 15.94C10.3138 14.3 11.2538 12.94 12.4938 11.86L20.2938 5.32C21.5338 4.28 23.1138 3.5 25.0338 2.98C26.9538 2.46 29.2138 2.2 31.8138 2.2H46.4538C47.4138 2.2 48.1138 2.42 48.5538 2.86C48.9938 3.3 49.2138 4 49.2138 4.96V12.22C49.2138 12.74 49.1338 13.18 48.9738 13.54C48.8538 13.9 48.6538 14.2 48.3738 14.44L40.5738 20.92C40.4138 21.08 40.1538 21.22 39.7938 21.34C39.4738 21.46 39.1138 21.52 38.7138 21.52H31.3338V31.66C31.3338 32.5 31.5938 33.1 32.1138 33.46C32.6338 33.78 33.3938 33.94 34.3938 33.94H46.4538C47.4138 33.94 48.1138 34.16 48.5538 34.6C48.9938 35.04 49.2138 35.74 49.2138 36.7V43.84C49.2138 44.36 49.1338 44.8 48.9738 45.16C48.8538 45.52 48.6538 45.82 48.3738 46.06L40.5738 52.54C40.4138 52.7 40.1538 52.84 39.7938 52.96C39.4738 53.08 39.1138 53.14 38.7138 53.14ZM46.4538 46C47.2138 46 47.7538 45.84 48.0738 45.52C48.4338 45.16 48.6138 44.6 48.6138 43.84V36.7C48.6138 35.94 48.4338 35.4 48.0738 35.08C47.7538 34.72 47.2138 34.54 46.4538 34.54H34.3938C33.1538 34.54 32.2338 34.32 31.6338 33.88C31.0338 33.4 30.7338 32.66 30.7338 31.66V17.38C30.7338 16.38 31.0338 15.64 31.6338 15.16C32.2338 14.64 33.1538 14.38 34.3938 14.38H46.4538C47.2138 14.38 47.7538 14.22 48.0738 13.9C48.4338 13.54 48.6138 12.98 48.6138 12.22V4.96C48.6138 4.2 48.4338 3.66 48.0738 3.34C47.7538 2.98 47.2138 2.8 46.4538 2.8H31.8138C26.8138 2.8 23.0938 3.82 20.6538 5.86C18.2538 7.86 17.0538 10.94 17.0538 15.1V33.76C17.0538 37.92 18.2538 41 20.6538 43C23.0938 45 26.8138 46 31.8138 46H46.4538ZM43.1538 40V40.6H33.1338C29.2538 40.6 26.6738 40 25.3938 38.8C24.1538 37.6 23.5338 35.62 23.5338 32.86V16.06C23.5338 13.22 24.1738 11.2 25.4538 10C26.7338 8.8 29.2938 8.2 33.1338 8.2H43.1538V8.8H33.1338C29.6138 8.8 27.2338 9.36 25.9938 10.48C24.7538 11.56 24.1338 13.42 24.1338 16.06V32.86C24.1338 35.46 24.7338 37.3 25.9338 38.38C27.1338 39.46 29.5338 40 33.1338 40H43.1538Z" fill="#E99C58"/>
</g>
<defs>
<clipPath id="clip0_626_21">
<rect width="57" height="54" fill="white"/>
</clipPath>
</defs>
</svg>
