<svg width="57" height="54" viewBox="0 0 57 54" fill="none" xmlns="http://www.w3.org/2000/svg">
<g clip-path="url(#clip0_626_21)">
<path d="M21.8838 8.68L43.9638 33.52V8.2H44.5638V40.6H43.9638V34.42L21.2838 8.98C21.2438 8.94 21.1838 8.9 21.1038 8.86C21.0638 8.82 21.0238 8.8 20.9838 8.8C20.9438 8.8 20.9038 8.82 20.8638 8.86C20.8638 8.9 20.8638 8.94 20.8638 8.98V40.6H20.2638V8.86C20.2638 8.62 20.3438 8.44 20.5038 8.32C20.6638 8.2 20.8238 8.14 20.9838 8.14C21.1438 8.14 21.2838 8.18 21.4038 8.26C21.5238 8.34 21.6838 8.48 21.8838 8.68ZM25.1238 46C25.8838 46 26.4238 45.84 26.7438 45.52C27.1038 45.16 27.2838 44.6 27.2838 43.84V24.04L37.5438 36.46V43.84C37.5438 44.6 37.7038 45.16 38.0238 45.52C38.3838 45.84 38.9438 46 39.7038 46H48.7038C49.4638 46 50.0038 45.84 50.3238 45.52C50.6838 45.16 50.8638 44.6 50.8638 43.84V4.96C50.8638 4.2 50.6838 3.66 50.3238 3.34C50.0038 2.98 49.4638 2.8 48.7038 2.8H39.7038C38.9438 2.8 38.3838 2.98 38.0238 3.34C37.7038 3.66 37.5438 4.2 37.5438 4.96V17.74L25.9038 4.42C25.3838 3.82 24.8438 3.4 24.2838 3.16C23.7638 2.92 23.1238 2.8 22.3638 2.8H16.1238C15.3638 2.8 14.8038 2.98 14.4438 3.34C14.1238 3.66 13.9638 4.2 13.9638 4.96V43.84C13.9638 44.6 14.1238 45.16 14.4438 45.52C14.8038 45.84 15.3638 46 16.1238 46H25.1238ZM27.0438 46.06L19.2438 52.54C19.0838 52.7 18.8238 52.84 18.4638 52.96C18.1438 53.08 17.7838 53.14 17.3838 53.14H8.38383C7.42383 53.14 6.72383 52.92 6.28383 52.48C5.84383 52.04 5.62383 51.34 5.62383 50.38V11.5C5.62383 10.98 5.68383 10.54 5.80383 10.18C5.96383 9.82 6.18383 9.52 6.46383 9.28L14.2038 2.74C14.4038 2.58 14.6638 2.46 14.9838 2.38C15.3438 2.26 15.7238 2.2 16.1238 2.2H22.3638C23.2438 2.2 23.9838 2.34 24.5838 2.62C25.1838 2.9 25.7838 3.36 26.3838 4L30.5238 8.8L37.7838 2.74C37.9838 2.58 38.2438 2.46 38.5638 2.38C38.9238 2.26 39.3038 2.2 39.7038 2.2H48.7038C49.6638 2.2 50.3638 2.42 50.8038 2.86C51.2438 3.3 51.4638 4 51.4638 4.96V43.84C51.4638 44.36 51.3838 44.8 51.2238 45.16C51.1038 45.52 50.9038 45.82 50.6238 46.06L42.8238 52.54C42.6638 52.7 42.4038 52.84 42.0438 52.96C41.7238 53.08 41.3638 53.14 40.9638 53.14H31.9638C31.0038 53.14 30.3038 52.92 29.8638 52.48C29.4238 52.04 29.2038 51.34 29.2038 50.38V43.24L27.8838 41.62V43.84C27.8838 44.36 27.8038 44.8 27.6438 45.16C27.5238 45.52 27.3238 45.82 27.0438 46.06Z" fill="#578BC8"/>
</g>
<defs>
<clipPath id="clip0_626_21">
<rect width="57" height="54" fill="white"/>
</clipPath>
</defs>
</svg>
