<svg width="71" height="71" viewBox="0 0 71 71" fill="none" xmlns="http://www.w3.org/2000/svg">
<path d="M2.03125 40.2031V37.7812C4.20573 37.7812 5.72266 37.3255 6.58203 36.4141C7.45443 35.5026 7.89062 33.9792 7.89062 31.8437V25.5937C7.89062 23.7969 8.0599 22.2409 8.39844 20.9258C8.75 19.6107 9.31641 18.5234 10.0977 17.6641C10.8789 16.8047 11.9206 16.1667 13.2227 15.75C14.5247 15.3333 16.1328 15.125 18.0469 15.125V18.9531C16.5365 18.9531 15.3451 19.1875 14.4727 19.6562C13.6133 20.125 13.0013 20.8542 12.6367 21.8437C12.2852 22.8203 12.1094 24.0703 12.1094 25.5937V33.4062C12.1094 34.4219 11.9727 35.3464 11.6992 36.1797C11.4388 37.013 10.9505 37.7292 10.2344 38.3281C9.51823 38.9271 8.49609 39.3893 7.16797 39.7148C5.85286 40.0404 4.14063 40.2031 2.03125 40.2031ZM18.0469 65.125C16.1328 65.125 14.5247 64.9167 13.2227 64.5C11.9206 64.0833 10.8789 63.4453 10.0977 62.5859C9.31641 61.7266 8.75 60.6393 8.39844 59.3242C8.0599 58.0091 7.89062 56.4531 7.89062 54.6562V48.4062C7.89062 46.2708 7.45443 44.7474 6.58203 43.8359C5.72266 42.9245 4.20573 42.4687 2.03125 42.4687V40.0469C4.14063 40.0469 5.85286 40.2096 7.16797 40.5352C8.49609 40.8607 9.51823 41.3229 10.2344 41.9219C10.9505 42.5208 11.4388 43.237 11.6992 44.0703C11.9727 44.9036 12.1094 45.8281 12.1094 46.8437V54.6562C12.1094 56.1797 12.2852 57.4297 12.6367 58.4063C13.0013 59.3828 13.6133 60.1055 14.4727 60.5742C15.3451 61.056 16.5365 61.2969 18.0469 61.2969V65.125ZM2.03125 42.4687V37.7812H6.64063V42.4687H2.03125ZM68.7549 40.0469V42.4687C66.5804 42.4687 65.057 42.9245 64.1846 43.8359C63.3252 44.7474 62.8955 46.2708 62.8955 48.4062V54.6562C62.8955 56.4531 62.7197 58.0091 62.3682 59.3242C62.0296 60.6393 61.4697 61.7266 60.6885 62.5859C59.9072 63.4453 58.8656 64.0833 57.5635 64.5C56.2614 64.9167 54.6533 65.125 52.7393 65.125V61.2969C54.2497 61.2969 55.4346 61.056 56.2939 60.5742C57.1663 60.1055 57.7783 59.3828 58.1299 58.4063C58.4945 57.4297 58.6768 56.1797 58.6768 54.6562V46.8437C58.6768 45.8281 58.807 44.9036 59.0674 44.0703C59.3408 43.237 59.8356 42.5208 60.5518 41.9219C61.2679 41.3229 62.2835 40.8607 63.5986 40.5352C64.9268 40.2096 66.6455 40.0469 68.7549 40.0469ZM52.7393 15.125C54.6533 15.125 56.2614 15.3333 57.5635 15.75C58.8656 16.1667 59.9072 16.8047 60.6885 17.6641C61.4697 18.5234 62.0296 19.6107 62.3682 20.9258C62.7197 22.2409 62.8955 23.7969 62.8955 25.5937V31.8437C62.8955 33.9792 63.3252 35.5026 64.1846 36.4141C65.057 37.3255 66.5804 37.7812 68.7549 37.7812V40.2031C66.6455 40.2031 64.9268 40.0404 63.5986 39.7148C62.2835 39.3893 61.2679 38.9271 60.5518 38.3281C59.8356 37.7292 59.3408 37.013 59.0674 36.1797C58.807 35.3464 58.6768 34.4219 58.6768 33.4062V25.5937C58.6768 24.0703 58.4945 22.8203 58.1299 21.8437C57.7783 20.8542 57.1663 20.125 56.2939 19.6562C55.4346 19.1875 54.2497 18.9531 52.7393 18.9531V15.125ZM68.7549 37.7812V42.4687H64.1455V37.7812H68.7549Z" fill="#578BC8"/>
<circle cx="44.5" cy="27.5" r="7" stroke="#ED9AAE" stroke-width="5"/>
<circle cx="26" cy="52" r="9" fill="#ED9AAE"/>
<path d="M48 57L24 27" stroke="#E99C58" stroke-width="4" stroke-linecap="round" stroke-linejoin="round"/>
</svg>
